<?xml version="1.0" encoding="UTF-8" standalone="no"?>
<!-- Created with Inkscape (http://www.inkscape.org/) -->

<svg
   xmlns:dc="http://purl.org/dc/elements/1.1/"
   xmlns:cc="http://creativecommons.org/ns#"
   xmlns:rdf="http://www.w3.org/1999/02/22-rdf-syntax-ns#"
   xmlns:svg="http://www.w3.org/2000/svg"
   xmlns="http://www.w3.org/2000/svg"
   xmlns:sodipodi="http://sodipodi.sourceforge.net/DTD/sodipodi-0.dtd"
   xmlns:inkscape="http://www.inkscape.org/namespaces/inkscape"
   width="192mm"
   height="185mm"
   viewBox="0 0 680.31479 655.51173"
   id="svg3958"
   version="1.1"
   inkscape:version="0.91 r13725"
   sodipodi:docname="postgres_logo.svg">
  <defs
     id="defs3960" />
  <sodipodi:namedview
     id="base"
     pagecolor="#ffffff"
     bordercolor="#666666"
     borderopacity="1.0"
     inkscape:pageopacity="0.0"
     inkscape:pageshadow="2"
     inkscape:zoom="0.70710678"
     inkscape:cx="509.28641"
     inkscape:cy="322.04199"
     inkscape:document-units="px"
     inkscape:current-layer="layer1"
     showgrid="true"
     inkscape:window-width="1366"
     inkscape:window-height="704"
     inkscape:window-x="0"
     inkscape:window-y="27"
     inkscape:window-maximized="1">
    <inkscape:grid
       type="xygrid"
       id="grid4474" />
  </sodipodi:namedview>
  <metadata
     id="metadata3963">
    <rdf:RDF>
      <cc:Work
         rdf:about="">
        <dc:format>image/svg+xml</dc:format>
        <dc:type
           rdf:resource="http://purl.org/dc/dcmitype/StillImage" />
        <dc:title></dc:title>
      </cc:Work>
    </rdf:RDF>
  </metadata>
  <g
     inkscape:label="Layer 1"
     inkscape:groupmode="layer"
     id="layer1"
     transform="translate(0,-396.85047)">
    <path
       d="m 28.985744,610.80958 c 0,22.5479 15.02861,39.46506 38.41366,39.46506 22.552892,0 34.531936,-19.00003 34.531936,-40.51647 0,-22.13432 -11.351194,-42.59934 -34.950506,-42.59934 -24.43645,0 -37.99509,20.46502 -37.99509,43.65075 z m 0.62287,-33.00216 0.41857,0 c 7.30502,-12.32287 22.5479,-19.42359 36.74935,-19.42359 29.235042,0 47.607236,22.97644 47.607236,51.16506 0,28.18862 -18.162914,49.49577 -47.188666,49.49577 -15.03859,0 -29.02078,-6.27355 -37.16792,-18.79574 l -0.41857,0 0,321.45091 -9.39787,0 0,-401.21319 9.39787,0 0,17.32078"
       style="fill:#ff5555;fill-opacity:1;fill-rule:nonzero;stroke:none"
       id="path248"
       inkscape:connector-curvature="0" />
    <path
       d="m 20.275524,943.76117 c 0,5.94965 -0.0598,9.54735 -0.19434,10.78811 -0.13454,1.25072 -0.66273,2.3121 -1.58956,3.20903 -0.94676,0.877 -2.97981,1.32547 -6.1141,1.32547 l -2.01809,0 0,3.01469 27.0824,0 0,-3.01469 c -2.70077,0 -4.58931,-0.39864 -5.68058,-1.2009 -1.08629,-0.81222 -1.70417,-1.93339 -1.85865,-3.39838 -0.14948,-1.45004 -0.22423,-5.03777 -0.22423,-10.72333 l 0,-1.01653 -9.40285,0 0,1.01653"
       style="fill:#ff5555;fill-opacity:1;fill-rule:nonzero;stroke:none"
       id="path252"
       inkscape:connector-curvature="0" />
    <path
       d="m 29.628544,696.33715 c -4.62419,-13.06533 -0.97666,-68.57553 -0.97666,-68.57553 0,0 3.46316,31.25812 39.91851,31.25812 -25.07426,0 -38.94185,12.8411 -38.94185,37.31741"
       style="fill:#ff5555;fill-opacity:1;fill-rule:nonzero;stroke:none"
       id="path254"
       inkscape:connector-curvature="0" />
    <path
       d="m 171.10031,649.83099 c 21.92504,0 41.34862,-17.34071 41.34862,-40.10289 0,-23.59931 -17.95859,-41.97647 -41.34862,-41.97647 -24.0129,0 -26.52431,18.17784 -26.52431,41.97647 0,22.97644 3.97641,40.10289 26.52431,40.10289 z m -0.21427,-91.47723 c 28.61716,0 50.32793,22.35357 50.32793,50.75147 0,27.56077 -22.76218,50.11366 -50.11366,50.11366 -27.77503,0 -50.54717,-22.12436 -50.54717,-50.11366 0,-28.3979 21.72572,-50.75147 50.3329,-50.75147"
       style="fill:#ff5555;fill-opacity:1;fill-rule:nonzero;stroke:none"
       id="path34"
       inkscape:connector-curvature="0" />
    <path
       d="m 238.96047,649.32825 c 0.52819,0.16444 1.06137,0.31393 1.59953,0.46342 l 4.35511,5.06269 7.33492,-0.57304 -1.27066,5.63573 c -0.79229,0.0349 -1.61448,0.01 -2.42172,0.0249 -8.7451,-0.52321 -20.05144,-4.18569 -24.22218,-7.42461 1.5796,1.02649 3.44821,1.66431 5.47628,1.71414 3.83688,0.0997 7.23028,-1.88855 9.14872,-4.90324"
       style="fill:#ff5555;fill-opacity:1;fill-rule:nonzero;stroke:none"
       id="path300"
       inkscape:connector-curvature="0" />
    <path
       d="m 245.48316,650.79324 c -0.69761,-0.24915 -1.2856,-0.57304 -1.70417,-1.02649 -0.94178,-0.98662 -1.61946,-2.61107 -2.048,-4.87333 2.32206,8.89957 21.45166,6.8117 27.75012,-0.55311 -4.93811,5.76528 -10.64361,7.1655 -18.23266,6.97614 -1.99817,-0.0498 -3.90166,-0.24914 -5.76529,-0.52321"
       style="fill:#ff5555;fill-opacity:1;fill-rule:nonzero;stroke:none"
       id="path302"
       inkscape:connector-curvature="0" />
    <path
       d="m 240.56,649.79167 c 1.58956,0.42853 3.23394,0.76239 4.92316,1.00157 0.87202,0.3239 1.93838,0.51325 3.23395,0.54813 1.32048,0.0249 2.4566,2.925 3.59271,2.67585 l -0.0598,0.2641 -7.33492,0.57304 -4.35511,-5.06269"
       style="fill:#ff5555;fill-opacity:1;fill-rule:nonzero;stroke:none"
       id="path304"
       inkscape:connector-curvature="0" />
    <path
       d="m 239.43883,648.48115 1.12117,1.31052 c -0.53816,-0.14949 -1.07134,-0.29898 -1.59953,-0.46342 0.16942,-0.27406 0.33385,-0.55809 0.47836,-0.8471"
       style="fill:#ff5555;fill-opacity:1;fill-rule:nonzero;stroke:none"
       id="path306"
       inkscape:connector-curvature="0" />
    <path
       d="m 230.58411,633.21833 c 0.0947,0 0.17938,-0.01 0.27406,-0.01 5.83505,0.14949 9.46763,4.04617 10.87282,11.68505 -0.42355,-1.62445 -0.88696,-2.6908 -1.36035,-3.31367 -0.95672,-4.60924 -4.91818,-8.12223 -9.78653,-8.36141"
       style="fill:#ff5555;fill-opacity:1;fill-rule:nonzero;stroke:none"
       id="path308"
       inkscape:connector-curvature="0" />
    <path
       d="m 245.48316,650.79324 c -1.68922,-0.23918 -3.3336,-0.57304 -4.92316,-1.00157 l -1.12117,-1.31052 c 0.69263,-1.35038 1.1112,-2.87517 1.15605,-4.49962 0.0199,-0.82717 -0.0648,-1.62943 -0.22424,-2.40179 0.47339,0.62288 0.9368,1.68923 1.36035,3.31368 0.42854,2.26226 1.10622,3.88671 2.048,4.87333 0.41857,0.45345 1.00656,0.77734 1.70417,1.02649"
       style="fill:#ff5555;fill-opacity:1;fill-rule:nonzero;stroke:none"
       id="path310"
       inkscape:connector-curvature="0" />
    <path
       d="m 223.58803,636.11842 c -0.81721,0.88697 -1.45005,1.83871 -1.92841,2.86022 -0.61789,1.3155 -0.97666,2.71571 -1.01652,4.26541 -0.0897,3.52296 -0.50827,5.88488 3.52793,9.14872 -2.85025,-1.94833 -4.70391,-5.23709 -4.60924,-8.9494 0.14949,-5.80017 4.973,-10.38947 10.78313,-10.24995 0.0797,0 0.15946,0.0149 0.23919,0.0249 -2.82036,-0.01 -5.15239,0.94676 -6.99608,2.90008"
       style="fill:#ff5555;fill-opacity:1;fill-rule:nonzero;stroke:none"
       id="path312"
       inkscape:connector-curvature="0" />
    <path
       d="m 220.6431,643.24405 c 0.0399,-1.5497 0.39863,-2.94991 1.01652,-4.26541 5.10754,4.82351 10.79808,8.34148 17.30085,10.34961 -1.91844,3.01469 -5.31184,5.0029 -9.14872,4.90324 -2.02807,-0.0498 -3.89668,-0.68765 -5.47628,-1.71414 -0.0548,-0.0399 -0.10464,-0.0897 -0.16444,-0.12458 -4.0362,-3.26384 -3.61763,-5.62576 -3.52793,-9.14872"
       style="fill:#ff5555;fill-opacity:1;fill-rule:nonzero;stroke:none"
       id="path314"
       inkscape:connector-curvature="0" />
    <path
       d="m 224.19595,652.41769 c -0.01,-0.01 -0.0149,-0.0249 -0.0249,-0.0249 0.0598,0.0349 0.10963,0.0847 0.16444,0.12457 -0.0448,-0.0399 -0.0947,-0.0747 -0.13952,-0.0997"
       style="fill:#ff5555;fill-opacity:1;fill-rule:nonzero;stroke:none"
       id="path316"
       inkscape:connector-curvature="0" />
    <path
       d="m 240.37064,641.57974 c -2.1327,-2.86022 -4.45975,2.80043 -4.45975,2.80043 l 3.52794,4.10098 c -0.14451,0.28901 -0.30894,0.57304 -0.47836,0.8471 -6.50277,-2.00813 -12.19331,-5.5261 -17.30085,-10.34961 0.47836,-1.02151 1.1112,-1.97325 1.92841,-2.86022 1.84369,-1.95332 4.17572,-2.91005 6.99608,-2.90009 4.86835,0.23919 8.82981,3.75217 9.78653,8.36141"
       style="fill:#ff5555;fill-opacity:1;fill-rule:nonzero;stroke:none"
       id="path318"
       inkscape:connector-curvature="0" />
    <path
       d="m 240.37064,641.57974 c 0.15946,0.77236 0.24417,1.57462 0.22424,2.40179 -0.0448,1.62445 -0.46342,3.14924 -1.15605,4.49962 l -3.52794,-4.10098 c 0,0 2.32705,-5.66065 4.45975,-2.80043"
       style="fill:#ff5555;fill-opacity:1;fill-rule:nonzero;stroke:none"
       id="path320"
       inkscape:connector-curvature="0" />
    <path
       d="m 271.02583,578.18151 c -3.17415,-6.76188 -9.50251,-10.98743 -17.10153,-10.98743 -8.24182,0 -16.68794,6.76188 -16.68794,15.19804 0,23.44982 47.50757,12.03883 47.50757,47.29828 0,17.95361 -13.93237,30.40105 -31.45246,30.40105 -12.88595,0 -23.91324,-6.09915 -29.93266,-16.6132 -1.57462,-2.74561 7.5741,-6.74693 8.89957,-4.43483 4.3003,7.48441 11.18675,12.14846 21.03309,12.14846 12.45242,0 21.94995,-9.46265 21.94995,-21.92504 0,-12.02388 -9.28825,-15.83585 -18.99007,-19.2143 -13.51878,-5.06269 -28.51252,-10.5589 -28.51252,-27.0226 0,-14.56022 12.46239,-24.70055 26.60404,-24.70055 9.82142,0 20.47499,6.41307 24.78027,15.35251 0.0448,0.0847 0.0897,0.1744 0.12956,0.27406 l -8.22687,4.22555"
       style="fill:#ff5555;fill-opacity:1;fill-rule:nonzero;stroke:none"
       id="path322"
       inkscape:connector-curvature="0" />
    <path
       d="m 317.87723,608.0582 c 0,-20.87862 15.03858,-40.91013 37.38218,-40.91013 23.38505,0 38.63291,17.54003 38.63291,39.8637 0,23.41993 -13.57857,43.25212 -38.00505,43.25212 -23.39003,0 -38.01004,-19.83219 -38.01004,-42.20569 z m 91.14337,-49.68014 c -6.19881,0 -13.83769,3.73722 -22.91665,11.16184 -7.85315,-7.32496 -17.42542,-11.16184 -29.59381,-11.16184 -28.1936,0 -48.03078,22.52299 -48.03078,50.1286 0,26.31005 19.09471,50.42758 44.90646,50.42758 0.36376,0 0.7026,0 1.06137,0 -0.0399,0 2.07291,0 2.03803,0 24.80519,0 36.48525,12.6069 36.77427,36.57495 l 0,206.44413 c 0,1.99319 -0.0399,3.93654 -0.0997,5.83007 0,70.76803 -57.56319,128.33111 -128.31627,128.33111 -70.7481,0 -128.29634,-57.56308 -128.29634,-128.33111 0,-70.75807 57.54824,-128.26145 128.29634,-128.26145 37.02341,0 70.41923,15.74616 93.85908,40.91012 2.68083,3.68739 2.4566,7.92291 -0.66772,12.65672 -2.74063,3.93654 -4.56937,7.62394 -5.4962,11.06218 -0.92683,3.43824 0.0498,6.82666 2.92001,10.16524 2.13769,2.49148 5.04774,4.0362 8.75008,4.58433 3.70733,0.49829 7.021,-0.44847 9.946,-2.93995 2.02806,-1.74404 3.68739,-4.33518 5.03279,-7.82325 1.33045,-3.48807 1.41018,-7.82325 0.21925,-13.00553 -1.171,-5.18228 -4.43982,-10.91269 -9.77159,-17.14139 -1.67926,-1.94336 -3.49804,-3.78706 -5.44638,-5.53109 l -0.0797,0.0997 c -25.07425,-26.11077 -60.29383,-42.40505 -99.26558,-42.40505 -75.90049,0 -137.65434,61.7389 -137.65434,137.62942 0,75.93038 61.75385,137.67921 137.65434,137.67921 75.90547,0 137.65932,-61.74883 137.65932,-137.67921 l 0.12458,0 c 0.0199,-1.8437 0.0299,-3.68739 0.0299,-5.63075 0,0 0,-286.32102 0,-299.97434 0,-11.46081 -6.60242,-21.07793 -8.72516,-23.86839 2.01311,-1.69421 3.88172,-2.59114 5.59088,-2.59114 1.36035,0 2.80541,0.64778 4.34514,1.89352 3.98139,3.38842 7.10072,5.0328 9.35801,5.0328 6.24365,0 9.35302,-3.68739 9.35302,-11.11201 -10e-6,-8.77001 -4.50959,-13.15502 -13.55865,-13.15502"
       style="fill:#ff5555;fill-opacity:1;fill-rule:nonzero;stroke:none"
       id="path298"
       inkscape:connector-curvature="0" />
    <path
       d="m 443.43831,576.03571 0.42355,0 c 3.96146,-8.97431 10.64859,-14.61503 20.87363,-14.61503 3.97641,0 6.90141,0.83714 10.23999,2.28718 l -5.01286,8.35145 c -2.30213,-1.25073 -4.38999,-1.8736 -6.68714,-1.8736 -21.08789,0 -19.83717,26.10076 -19.83717,40.51149 l 0,354.02454 -9.3879,0 0,-401.2132 9.3879,0 0,12.52717"
       style="fill:#ff5555;fill-opacity:1;fill-rule:nonzero;stroke:none"
       id="path522"
       inkscape:connector-curvature="0" />
    <path
       d="m 443.56288,560.70812 -1.36533,0 c -1.30055,0.6129 -3.74718,1.21086 -7.34987,1.82376 -3.58773,0.60294 -6.66222,0.91687 -9.23841,0.91687 l 0,2.98479 c 2.8652,0 4.87832,0.36376 6.0244,1.1112 1.15107,0.72752 1.86363,1.86363 2.15264,3.37845 0.22424,1.24574 0.36376,3.76214 0.40362,7.49936 l 9.37295,0 0,-17.71443"
       style="fill:#ff5555;fill-opacity:1;fill-rule:nonzero;stroke:none"
       id="path524"
       inkscape:connector-curvature="0" />
    <path
       d="m 434.00058,946.77311 c 0,5.9646 -0.0648,9.5623 -0.2043,10.79807 -0.12458,1.24076 -0.64779,2.30213 -1.59953,3.19907 -0.9368,0.89195 -2.95988,1.34041 -6.09915,1.34041 l -2.02308,0 0,2.99975 27.08738,0 0,-2.99975 c -2.70076,0 -4.58931,-0.41358 -5.67559,-1.21584 -1.08629,-0.79727 -1.72411,-1.92342 -1.8736,-3.38343 -0.14948,-1.45004 -0.21426,-5.03778 -0.21426,-10.73828 l 0,-1.01155 -9.39787,0 0,1.01155"
       style="fill:#ff5555;fill-opacity:1;fill-rule:nonzero;stroke:none"
       id="path526"
       inkscape:connector-curvature="0" />
    <path
       d="m 481.24903,563.40889 c -2.76056,-3.34856 -6.81171,-5.03778 -12.14846,-5.03778 -5.59089,0 -10.69842,1.62445 -15.35251,4.84842 -4.11094,2.87517 -7.82325,7.09076 -11.15187,12.50226 l 0.77734,18.56153 c 0.51325,-3.57278 1.25073,-6.61239 2.23735,-9.02414 2.03803,-4.98795 5.10256,-7.4894 9.17862,-7.4894 2.63599,0 5.08262,1.26568 7.34987,3.76214 2.25728,2.57619 4.07108,4.28036 5.44638,5.0876 1.39024,0.82718 3.13926,1.22581 5.28692,1.22581 3.95149,0 7.01601,-1.32048 9.22845,-3.9465 2.19748,-2.64097 3.28875,-5.81512 3.28875,-9.51248 0,-3.95149 -1.38028,-7.61397 -4.14084,-10.97746"
       style="fill:#ff5555;fill-opacity:1;fill-rule:nonzero;stroke:none"
       id="path528"
       inkscape:connector-curvature="0" />
    <path
       d="m 536.63482,649.45654 c -1.73905,0.24915 -3.49804,0.3488 -5.28692,0.3488 -22.55289,0 -41.77716,-17.09155 -41.77716,-40.06302 0,-23.81856 17.76426,-42.00637 41.77716,-42.00637 23.38504,0 41.34862,18.38713 41.34862,42.00637 0,0.79728 -0.0349,1.59455 -0.0847,2.39183 l 8.7451,0 c 0.065,-0.99659 0.1046,-1.99319 0.1046,-3.03961 0,-28.40289 -21.71571,-50.72656 -50.32788,-50.72656 -28.59722,0 -50.32294,22.32367 -50.32294,50.72656 0,28.00425 22.77214,50.1286 50.53721,50.1286 8.4511,0 16.46371,-2.14267 23.49965,-5.92972 l -18.21273,-3.83688"
       style="fill:#ff5555;fill-opacity:1;fill-rule:nonzero;stroke:none"
       id="path220"
       inkscape:connector-curvature="0" />
    <path
       d="m 489.10732,610.06109 87.4625,0 0,-8.84277 -87.4625,0 0,8.84277 z"
       style="fill:#ff5555;fill-opacity:1;fill-rule:nonzero;stroke:none"
       id="path222"
       inkscape:connector-curvature="0" />
    <path
       d="m 544.82183,647.86199 c -0.52321,0.19932 -1.05141,0.39863 -1.58458,0.54813 l -4.10098,5.28193 -7.34987,-0.19931 1.5497,5.58092 c 0.78731,0 1.6095,-0.0997 2.41175,-0.0997 8.71022,-0.94677 19.82223,-5.18228 23.8385,-8.62053 -1.52479,1.09626 -3.37845,1.8437 -5.38659,1.99319 -3.82691,0.24915 -7.31498,-1.54472 -9.37793,-4.48466"
       style="fill:#ff5555;fill-opacity:1;fill-rule:nonzero;stroke:none"
       id="path224"
       inkscape:connector-curvature="0" />
    <path
       d="m 538.37388,649.65585 c 0.68764,-0.24914 1.25072,-0.64778 1.64936,-1.09625 0.90191,-1.04642 1.49987,-2.6908 1.80881,-4.98296 -1.88356,9.01916 -20.04646,7.37478 -28.33312,2.44165 5.19723,3.33858 11.57542,5.03279 19.14952,4.43484 1.98322,-0.14949 3.87176,-0.39864 5.72543,-0.79728"
       style="fill:#ff5555;fill-opacity:1;fill-rule:nonzero;stroke:none"
       id="path226"
       inkscape:connector-curvature="0" />
    <path
       d="m 513.81285,651.00126 8.86968,2.24234 9.10387,0.24914 -0.0747,-0.24914 c 1.15106,0.1993 2.13769,-2.79047 3.46316,-2.89013 1.2856,-0.0997 2.34697,-0.29898 3.19906,-0.69762 -1.85366,0.39864 -3.74221,0.64779 -5.72542,0.79728 -7.57411,0.59795 -13.9523,-1.09625 -19.14953,-4.43484 -0.0747,-0.0498 -0.14949,-0.0997 -0.21427,-0.0997 -9.17363,-5.68057 0.5282,5.08262 0.5282,5.08262"
       style="fill:#ff5555;fill-opacity:1;fill-rule:nonzero;stroke:none"
       id="path228"
       inkscape:connector-curvature="0" />
    <path
       d="m 543.23725,648.41012 c -1.56465,0.49829 -3.1891,0.94677 -4.86337,1.24573 -0.85209,0.39864 -1.91346,0.59796 -3.19907,0.69762 -1.32546,0.0997 -2.31209,3.08943 -3.46316,2.89013 l 0.0747,0.24914 7.34987,0.19931 4.10098,-5.28193"
       style="fill:#ff5555;fill-opacity:1;fill-rule:nonzero;stroke:none"
       id="path230"
       inkscape:connector-curvature="0" />
    <path
       d="m 544.29862,647.06471 -1.06137,1.34541 c 0.53317,-0.1495 1.06137,-0.3488 1.58458,-0.54813 -0.18935,-0.24915 -0.36376,-0.4983 -0.52321,-0.79728"
       style="fill:#ff5555;fill-opacity:1;fill-rule:nonzero;stroke:none"
       id="path232"
       inkscape:connector-curvature="0" />
    <path
       d="m 552.39593,631.36838 c -0.0997,0 -0.18437,0 -0.27406,0 -5.82508,0.44848 -9.24838,4.5345 -10.28982,12.20826 0.33884,-1.64437 0.75243,-2.69079 1.2009,-3.33858 0.72751,-4.68399 4.49961,-8.37137 9.36298,-8.86968"
       style="fill:#ff5555;fill-opacity:1;fill-rule:nonzero;stroke:none"
       id="path234"
       inkscape:connector-curvature="0" />
    <path
       d="m 538.37388,649.65585 c 1.67427,-0.29897 3.29872,-0.74744 4.86337,-1.24573 l 1.06137,-1.34541 c -0.7624,-1.29557 -1.25073,-2.84029 -1.3753,-4.43483 -0.0648,-0.84711 -0.0149,-1.64438 0.10963,-2.39183 -0.44847,0.64779 -0.86206,1.69421 -1.2009,3.33859 -0.30894,2.29216 -0.9069,3.93654 -1.80881,4.98296 -0.39864,0.44847 -0.96172,0.84711 -1.64936,1.09625"
       style="fill:#ff5555;fill-opacity:1;fill-rule:nonzero;stroke:none"
       id="path236"
       inkscape:connector-curvature="0" />
    <path
       d="m 559.52157,633.95952 c 0.86205,0.79728 1.53973,1.74405 2.07291,2.74063 0.67768,1.29557 1.10124,2.6908 1.21584,4.1857 0.25912,3.5379 0.79728,5.8799 -3.07448,9.31813 2.76056,-2.04301 4.44978,-5.43143 4.17572,-9.11882 -0.4385,-5.83007 -5.49123,-10.16525 -11.27645,-9.71678 -0.0897,0 -0.16443,0 -0.23918,0 2.81538,-0.14949 5.18727,0.69763 7.12564,2.59114"
       style="fill:#ff5555;fill-opacity:1;fill-rule:nonzero;stroke:none"
       id="path238"
       inkscape:connector-curvature="0" />
    <path
       d="m 562.81032,640.88585 c -0.1146,-1.4949 -0.53816,-2.89013 -1.21584,-4.1857 -4.87334,5.08263 -10.38449,8.86968 -16.77265,11.16184 2.06295,2.93994 5.55102,4.73381 9.37793,4.48466 2.00814,-0.14949 3.8618,-0.89693 5.38659,-1.99318 0.0498,-0.0498 0.0997,-0.0997 0.14949,-0.14949 3.87176,-3.43824 3.3336,-5.78024 3.07448,-9.31814"
       style="fill:#ff5555;fill-opacity:1;fill-rule:nonzero;stroke:none"
       id="path240"
       inkscape:connector-curvature="0" />
    <path
       d="m 559.71092,650.25382 c 0.01,0 0.0249,0 0.0249,-0.0498 -0.0498,0.0498 -0.0997,0.0997 -0.14949,0.14949 0.0349,-0.0498 0.0847,-0.0997 0.12458,-0.0997"
       style="fill:#ff5555;fill-opacity:1;fill-rule:nonzero;stroke:none"
       id="path242"
       inkscape:connector-curvature="0" />
    <path
       d="m 543.03295,640.23806 c 1.9882,-2.98978 4.5893,2.54132 4.5893,2.54132 l -3.32363,4.28534 c 0.15945,0.29898 0.33386,0.54813 0.52321,0.79728 6.38816,-2.29217 11.89931,-6.07922 16.77265,-11.16184 -0.53318,-0.99659 -1.21086,-1.94335 -2.07291,-2.74063 -1.93837,-1.89352 -4.31026,-2.74063 -7.12564,-2.59114 -4.86337,0.4983 -8.63547,4.18569 -9.36298,8.86967"
       style="fill:#ff5555;fill-opacity:1;fill-rule:nonzero;stroke:none"
       id="path244"
       inkscape:connector-curvature="0" />
    <path
       d="m 543.03295,640.23806 c -0.12458,0.74744 -0.17441,1.54472 -0.10963,2.39183 0.12457,1.59454 0.6129,3.13926 1.3753,4.43483 l 3.32363,-4.28534 c 0,0 -2.6011,-5.53109 -4.5893,-2.54132"
       style="fill:#ff5555;fill-opacity:1;fill-rule:nonzero;stroke:none"
       id="path246"
       inkscape:connector-curvature="0" />
    <path
       d="m 594.29864,649.36297 c 0.5282,0.16444 1.06137,0.31393 1.59953,0.46342 l 4.35509,5.06269 7.3349,-0.57304 -1.2706,5.63573 c -0.7923,0.0349 -1.6145,0.01 -2.4217,0.0249 -8.74513,-0.52321 -20.05147,-4.18569 -24.22221,-7.42461 1.5796,1.02649 3.44821,1.66431 5.47627,1.71414 3.83689,0.0997 7.23028,-1.88855 9.14872,-4.90324"
       style="fill:#ff5555;fill-opacity:1;fill-rule:nonzero;stroke:none"
       id="path300-3"
       inkscape:connector-curvature="0" />
    <path
       d="m 600.82136,650.82796 c -0.6976,-0.24915 -1.2856,-0.57304 -1.7042,-1.02649 -0.9418,-0.98662 -1.6195,-2.61107 -2.04799,-4.87333 2.32209,8.89957 21.45169,6.8117 27.75009,-0.55311 -4.9381,5.76528 -10.6436,7.1655 -18.2326,6.97614 -1.9982,-0.0498 -3.9017,-0.24914 -5.7653,-0.52321"
       style="fill:#ff5555;fill-opacity:1;fill-rule:nonzero;stroke:none"
       id="path302-6"
       inkscape:connector-curvature="0" />
    <path
       d="m 595.89817,649.82639 c 1.58959,0.42853 3.23399,0.76239 4.92319,1.00157 0.872,0.3239 1.9384,0.51325 3.2339,0.54813 1.3205,0.0249 2.4566,2.925 3.5927,2.67585 l -0.06,0.2641 -7.3349,0.57304 -4.35509,-5.06269"
       style="fill:#ff5555;fill-opacity:1;fill-rule:nonzero;stroke:none"
       id="path304-7"
       inkscape:connector-curvature="0" />
    <path
       d="m 594.77701,648.51587 1.12116,1.31052 c -0.53816,-0.14949 -1.07133,-0.29898 -1.59953,-0.46342 0.16942,-0.27406 0.33386,-0.55809 0.47837,-0.8471"
       style="fill:#ff5555;fill-opacity:1;fill-rule:nonzero;stroke:none"
       id="path306-5"
       inkscape:connector-curvature="0" />
    <path
       d="m 585.92228,633.25305 c 0.0947,0 0.17939,-0.01 0.27407,-0.01 5.83505,0.14949 9.46763,4.04617 10.87282,11.68505 -0.42355,-1.62445 -0.88697,-2.6908 -1.36035,-3.31367 -0.95673,-4.60924 -4.91818,-8.12223 -9.78654,-8.36141"
       style="fill:#ff5555;fill-opacity:1;fill-rule:nonzero;stroke:none"
       id="path308-3"
       inkscape:connector-curvature="0" />
    <path
       d="m 600.82136,650.82796 c -1.6892,-0.23918 -3.3336,-0.57304 -4.92319,-1.00157 l -1.12116,-1.31052 c 0.69263,-1.35038 1.1112,-2.87517 1.15605,-4.49962 0.0199,-0.82717 -0.0648,-1.62943 -0.22424,-2.40179 0.47338,0.62288 0.9368,1.68923 1.36035,3.31368 0.42849,2.26226 1.10619,3.88671 2.04799,4.87333 0.4186,0.45345 1.0066,0.77734 1.7042,1.02649"
       style="fill:#ff5555;fill-opacity:1;fill-rule:nonzero;stroke:none"
       id="path310-5"
       inkscape:connector-curvature="0" />
    <path
       d="m 578.9262,636.15314 c -0.8172,0.88697 -1.45004,1.83871 -1.9284,2.86022 -0.61789,1.3155 -0.97666,2.71571 -1.01653,4.26541 -0.0897,3.52296 -0.50826,5.88488 3.52794,9.14872 -2.85025,-1.94833 -4.70392,-5.23709 -4.60924,-8.9494 0.14949,-5.80017 4.973,-10.38947 10.78313,-10.24995 0.0797,0 0.15946,0.0149 0.23918,0.0249 -2.82035,-0.01 -5.15238,0.94676 -6.99608,2.90008"
       style="fill:#ff5555;fill-opacity:1;fill-rule:nonzero;stroke:none"
       id="path312-6"
       inkscape:connector-curvature="0" />
    <path
       d="m 575.98127,643.27877 c 0.0399,-1.5497 0.39864,-2.94991 1.01653,-4.26541 5.10753,4.82351 10.79808,8.34148 17.30084,10.34961 -1.91844,3.01469 -5.31183,5.0029 -9.14872,4.90324 -2.02806,-0.0498 -3.89667,-0.68765 -5.47627,-1.71414 -0.0548,-0.0399 -0.10464,-0.0897 -0.16444,-0.12458 -4.0362,-3.26384 -3.61763,-5.62576 -3.52794,-9.14872"
       style="fill:#ff5555;fill-opacity:1;fill-rule:nonzero;stroke:none"
       id="path314-2"
       inkscape:connector-curvature="0" />
    <path
       d="m 579.53413,652.45241 c -0.01,-0.01 -0.0149,-0.0249 -0.0249,-0.0249 0.0598,0.0349 0.10963,0.0847 0.16444,0.12457 -0.0448,-0.0399 -0.0947,-0.0747 -0.13952,-0.0997"
       style="fill:#ff5555;fill-opacity:1;fill-rule:nonzero;stroke:none"
       id="path316-9"
       inkscape:connector-curvature="0" />
    <path
       d="m 595.70882,641.61446 c -2.13271,-2.86022 -4.45975,2.80043 -4.45975,2.80043 l 3.52794,4.10098 c -0.14451,0.28901 -0.30895,0.57304 -0.47837,0.8471 -6.50276,-2.00813 -12.19331,-5.5261 -17.30084,-10.34961 0.47836,-1.02151 1.1112,-1.97325 1.9284,-2.86022 1.8437,-1.95332 4.17573,-2.91005 6.99608,-2.90009 4.86836,0.23919 8.82981,3.75217 9.78654,8.36141"
       style="fill:#ff5555;fill-opacity:1;fill-rule:nonzero;stroke:none"
       id="path318-1"
       inkscape:connector-curvature="0" />
    <path
       d="m 595.70882,641.61446 c 0.15946,0.77236 0.24417,1.57462 0.22424,2.40179 -0.0448,1.62445 -0.46342,3.14924 -1.15605,4.49962 l -3.52794,-4.10098 c 0,0 2.32704,-5.66065 4.45975,-2.80043"
       style="fill:#ff5555;fill-opacity:1;fill-rule:nonzero;stroke:none"
       id="path320-2"
       inkscape:connector-curvature="0" />
    <path
       d="m 626.36396,578.21623 c -3.1741,-6.76188 -9.5025,-10.98743 -17.1015,-10.98743 -8.2418,0 -16.68792,6.76188 -16.68792,15.19804 0,23.44982 47.50752,12.03883 47.50752,47.29828 0,17.95361 -13.9323,30.40105 -31.4524,30.40105 -12.88596,0 -23.91325,-6.09915 -29.93267,-16.6132 -1.57462,-2.74561 7.5741,-6.74693 8.89957,-4.43483 4.3003,7.48441 11.1868,12.14846 21.0331,12.14846 12.4524,0 21.9499,-9.46265 21.9499,-21.92504 0,-12.02388 -9.2882,-15.83585 -18.99,-19.2143 -13.5188,-5.06269 -28.51255,-10.5589 -28.51255,-27.0226 0,-14.56022 12.46239,-24.70055 26.60405,-24.70055 9.8214,0 20.475,6.41307 24.7803,15.35251 0.045,0.0847 0.09,0.1744 0.1295,0.27406 l -8.2269,4.22555"
       style="fill:#ff5555;fill-opacity:1;fill-rule:nonzero;stroke:none"
       id="path322-7"
       inkscape:connector-curvature="0" />
    <path
       d="m 662.15909,550.48726 c -1.2756,-3.20903 -3.9515,-6.20877 -8.0026,-8.98428 -4.0362,-2.79046 -9.8364,-4.63914 -17.3707,-5.56597 -2.3669,-0.27407 -4.7537,-0.39864 -7.1505,-0.34881 l -1.0514,8.69029 c 0.4634,0.01 0.887,-0.0399 1.4152,0.0249 4.6491,0.56308 7.4345,3.62261 8.3614,9.18858 0.5979,4.39498 1.6493,8.03752 3.1592,10.94757 1.5148,2.91504 4.2903,4.61423 8.3514,5.11252 3.0097,0.36376 5.9497,-0.4385 8.7999,-2.37189 2.8752,-1.95332 4.5395,-4.70392 4.9531,-8.22687 0.299,-2.43667 -0.2043,-5.25204 -1.465,-8.46605"
       style="fill:#ff5555;fill-opacity:1;fill-rule:nonzero;stroke:none"
       id="path264"
       inkscape:connector-curvature="0" />
    <path
       d="m 300.69415,955.56806 -9.52244,3.57278 0,-414.78678 -144.56571,0 0,-8.775 144.56571,0 0,-123.22368 9.39787,0 0,123.22368 330.82555,0 0,8.775 -330.82555,0 0.12457,411.214"
       style="fill:#ff5555;fill-opacity:1;fill-rule:nonzero;stroke:none"
       id="path266-3"
       inkscape:connector-curvature="0"
       sodipodi:nodetypes="ccccccccccccc" />
    <path
       d="m 300.56958,406.19146 -1.91346,0 c -0.17441,1.09127 -0.57304,2.11278 -1.2009,3.06452 -0.63782,0.9368 -1.48492,1.69919 -2.5712,2.24732 -1.09127,0.56307 -2.36691,0.85208 -3.85183,0.85208 l 9.53739,0 0,-6.16392"
       style="fill:#ff5555;fill-opacity:1;fill-rule:nonzero;stroke:none"
       id="path268"
       inkscape:connector-curvature="0" />
    <path
       d="m 308.75658,977.71733 c -1.62444,0 -3.16418,-0.53816 -4.59927,-1.58459 -1.42513,-1.06635 -2.37687,-2.47653 -2.81538,-4.21558 -0.43351,-1.74902 -0.64778,-5.13744 -0.64778,-10.16026 l 0,-6.18884 -9.48756,0 0,4.12589 c 0,6.31342 0.29898,10.73829 0.90192,13.2497 0.59795,2.51141 2.09782,4.71388 4.49961,6.58748 2.41175,1.87359 5.19723,2.81039 8.37636,2.81039 2.73565,0 5.44638,-0.73748 8.11226,-2.21244 2.67087,-1.48492 4.69894,-3.67244 6.07423,-6.58748 l -2.13769,-1.26069 c -2.33701,3.62262 -5.0876,5.43642 -8.2767,5.43642"
       style="fill:#ff5555;fill-opacity:1;fill-rule:nonzero;stroke:none"
       id="path270"
       inkscape:connector-curvature="0" />
    <path
       d="m 152.16699,530.88013 -5.56099,0 0,17.2261 5.84003,0 2.57121,-3.71231 c 0.0249,0.01 0.0648,0.0249 0.0747,0.0349 l 0,-8.78497 c -1.36034,-1.49987 -2.36192,-3.07449 -2.92499,-4.76371"
       style="fill:#ff5555;fill-opacity:1;fill-rule:nonzero;stroke:none"
       id="path272"
       inkscape:connector-curvature="0" />
    <path
       d="m 291.15676,498.26664 c 4.62419,13.06533 4.38501,48.39952 4.38501,48.39952 0,0 -6.87151,-11.07215 -43.32188,-11.07215 25.07427,0 38.93687,-12.83611 38.93687,-37.32737"
       style="fill:#ff5555;fill-opacity:1;fill-rule:nonzero;stroke:none"
       id="path274"
       inkscape:connector-curvature="0" />
  </g>
</svg>
